<svg xmlns="http://www.w3.org/2000/svg" width="512" height="512" viewBox="0 0 512 512" version="1.1"><path d="M 74 188.556 C 73.175 188.734, 69.463 189.168, 65.750 189.519 L 59 190.159 59 235.383 L 59 280.607 61.633 285.890 C 68.345 299.361, 87.998 305.005, 103 297.771 C 112.852 293.020, 112.844 293.036, 108.368 286.193 C 106.241 282.940, 104.050 279.508, 103.500 278.567 C 102.579 276.991, 102.263 276.979, 99.500 278.422 C 97.850 279.283, 94.628 279.990, 92.339 279.994 C 88.916 279.999, 87.718 279.454, 85.589 276.923 L 83 273.847 83 253.423 L 83 233 89 233 L 95 233 95.014 225.750 C 95.021 221.762, 95.299 217.488, 95.630 216.250 C 96.211 214.083, 95.990 214, 89.617 214 L 83 214 83 201 L 83 188 79.250 188.116 C 77.188 188.180, 74.825 188.378, 74 188.556 M 134.184 213.506 C 122.748 216.704, 112.304 225.913, 106.701 237.741 C 103.653 244.177, 103.500 245.073, 103.500 256.500 C 103.500 268.014, 103.635 268.788, 106.837 275.617 C 112.462 287.615, 123.606 296.865, 136.272 300.049 C 143.023 301.746, 156.204 300.778, 163.252 298.067 C 175.253 293.451, 185.037 282.430, 188.504 269.622 C 191.251 259.476, 190.334 246.438, 186.262 237.741 C 181.888 228.400, 174.480 220.841, 165.210 216.259 C 158.524 212.955, 156.845 212.554, 148.635 212.301 C 142.781 212.121, 137.591 212.554, 134.184 213.506 M 220 213.428 C 217.525 214.115, 214.037 215.436, 212.249 216.364 L 208.999 218.052 216.207 227.053 C 221.364 233.495, 223.853 235.874, 224.957 235.419 C 237.514 230.243, 250.304 235.383, 255.031 247.504 C 256.748 251.908, 256.505 261.874, 254.569 266.500 C 251.042 274.923, 243.534 280, 234.605 280 C 228.336 280, 224.466 278.772, 221.254 275.763 C 220.019 274.606, 218.757 273.910, 218.450 274.217 C 218.143 274.523, 218.646 280.400, 219.568 287.276 L 221.243 299.778 224.872 300.378 C 232.214 301.592, 245.404 300.968, 250.641 299.158 C 262.110 295.194, 272.098 284.073, 276.139 270.767 C 279.297 260.372, 278.503 246.810, 274.200 237.614 C 268.756 225.980, 257.616 216.958, 244.465 213.533 C 237.517 211.723, 226.316 211.675, 220 213.428 M 468.763 213.516 C 465.750 215.205, 463 219.731, 463 223 C 463 226.450, 465.828 230.860, 469.138 232.572 C 479.204 237.777, 488.911 224.479, 481.250 215.981 C 477.927 212.295, 472.759 211.275, 468.763 213.516 M 469.345 215.905 C 462.057 220.409, 465.760 232, 474.488 232 C 475.235 232, 477.231 230.835, 478.923 229.411 C 486.938 222.667, 478.244 210.408, 469.345 215.905 M 471.200 219.200 C 469.857 220.543, 469.568 225.615, 470.791 226.371 C 471.226 226.640, 471.402 225.321, 471.183 223.440 C 470.712 219.407, 472.998 217.896, 476.382 220.003 C 478.307 221.201, 478.375 221.170, 477.128 219.661 C 475.516 217.711, 472.893 217.507, 471.200 219.200 M 199.855 228.750 C 196.299 233.012, 193.061 237.045, 192.660 237.712 C 192.242 238.404, 193.945 242.393, 196.628 247.010 L 201.326 255.097 195.030 300.100 L 188.734 345.102 192.077 349.801 C 198.973 359.494, 206.092 369, 206.455 369 C 206.967 369, 223.027 347.093, 223.590 345.626 C 223.837 344.983, 222.262 331.866, 220.089 316.478 C 217.917 301.090, 215.137 280.980, 213.911 271.790 L 211.684 255.080 216.377 247.002 C 218.994 242.498, 220.758 238.388, 220.363 237.712 C 219.499 236.233, 206.929 221, 206.573 221 C 206.433 221, 203.410 224.488, 199.855 228.750 M 140.994 233.876 C 129.759 237.555, 123.674 245.519, 123.643 256.589 C 123.573 280.761, 156.165 289.015, 167.219 267.624 C 169.990 262.263, 170.216 252.061, 167.678 246.892 C 165.529 242.515, 160.659 237.392, 156.698 235.344 C 153.212 233.541, 144.503 232.727, 140.994 233.876" stroke="none" fill="#212f3f" fill-rule="evenodd"/><path d="M 58.459 233 C 58.459 256.925, 58.589 266.713, 58.749 254.750 C 58.908 242.788, 58.908 223.213, 58.749 211.250 C 58.589 199.288, 58.459 209.075, 58.459 233 M 313.162 213.936 C 301.279 218.336, 292.919 225.656, 287.856 236.091 C 276.306 259.898, 285.853 286.537, 310 297.882 C 314.866 300.168, 316.773 300.468, 326.552 300.483 C 337.327 300.500, 337.790 300.407, 345.052 296.773 C 349.148 294.723, 354.250 291.548, 356.388 289.719 L 360.276 286.391 352.014 279.810 L 343.751 273.229 340.326 275.553 C 330.012 282.553, 316.768 280.889, 310.046 271.748 C 302.096 260.937, 304.918 244.180, 315.981 236.513 C 319.339 234.186, 321.130 233.671, 325.794 233.689 C 331.830 233.713, 338.142 235.845, 341.491 238.992 C 343.486 240.866, 343.589 240.827, 350.005 235.833 C 353.577 233.053, 357.382 230.157, 358.461 229.397 C 360.351 228.066, 360.279 227.870, 356.461 223.947 C 354.282 221.709, 349.175 218.231, 345.112 216.219 C 338.394 212.891, 336.853 212.532, 328.112 212.260 C 320.468 212.021, 317.407 212.365, 313.162 213.936 M 363.433 213.718 C 363.802 214.698, 371.574 234.752, 380.703 258.282 L 397.302 301.065 407.754 300.782 L 418.206 300.500 435.601 256.500 C 445.168 232.300, 452.997 212.387, 452.998 212.250 C 452.999 212.113, 447.488 212.001, 440.750 212.001 L 428.500 212.003 419.556 235.751 C 408.406 265.354, 408.004 266.338, 407.338 265.671 C 407.038 265.371, 402.406 253.285, 397.045 238.813 L 387.298 212.500 375.030 212.218 C 363.615 211.956, 362.808 212.061, 363.433 213.718 M 95.349 225 C 95.349 229.675, 95.522 231.588, 95.732 229.250 C 95.943 226.912, 95.943 223.088, 95.732 220.750 C 95.522 218.412, 95.349 220.325, 95.349 225 M 115.437 224.250 L 112.500 227.500 115.750 224.563 C 118.779 221.825, 119.460 221, 118.687 221 C 118.515 221, 117.052 222.463, 115.437 224.250 M 190.286 256.500 C 190.294 259.250, 190.488 260.256, 190.718 258.736 C 190.947 257.216, 190.941 254.966, 190.704 253.736 C 190.467 252.506, 190.279 253.750, 190.286 256.500 M 113 286.313 C 113 286.485, 114.463 287.948, 116.250 289.563 L 119.500 292.500 116.563 289.250 C 113.825 286.221, 113 285.540, 113 286.313" stroke="none" fill="#00b14f" fill-rule="evenodd"/></svg>